<mxfile host="app.diagrams.net" agent="Mozilla/5.0 (X11; Linux x86_64) AppleWebKit/537.36 (KHTML, like Gecko) Chrome/128.0.0.0 Safari/537.36" version="26.1.3">
  <diagram name="Страница — 1" id="COlML5Zj0lS9_cHuvuZ6">
    <mxGraphModel dx="2041" dy="658" grid="1" gridSize="10" guides="1" tooltips="1" connect="1" arrows="1" fold="1" page="1" pageScale="1" pageWidth="827" pageHeight="1169" math="0" shadow="0">
      <root>
        <mxCell id="0" />
        <mxCell id="1" parent="0" />
        <mxCell id="iP4qbSGtAkl4iv16UOqa-5" value="&lt;font style=&quot;font-size: 16px;&quot;&gt;Backend&lt;/font&gt;" style="verticalAlign=top;align=left;spacingTop=8;spacingLeft=2;spacingRight=12;shape=cube;size=10;direction=south;fontStyle=4;html=1;whiteSpace=wrap;" parent="1" vertex="1">
          <mxGeometry x="60" y="400" width="570" height="310" as="geometry" />
        </mxCell>
        <mxCell id="iP4qbSGtAkl4iv16UOqa-1" value="&lt;font style=&quot;font-size: 16px;&quot;&gt;Клиент&lt;/font&gt;" style="verticalAlign=top;align=left;spacingTop=8;spacingLeft=2;spacingRight=12;shape=cube;size=10;direction=south;fontStyle=4;html=1;whiteSpace=wrap;" parent="1" vertex="1">
          <mxGeometry x="-190" y="400" width="190" height="120" as="geometry" />
        </mxCell>
        <mxCell id="iP4qbSGtAkl4iv16UOqa-3" value="&lt;font style=&quot;font-size: 16px;&quot;&gt;Клиент&lt;/font&gt;" style="verticalAlign=top;align=left;spacingTop=8;spacingLeft=2;spacingRight=12;shape=cube;size=10;direction=south;fontStyle=4;html=1;whiteSpace=wrap;" parent="1" vertex="1">
          <mxGeometry x="-190" y="781" width="190" height="120" as="geometry" />
        </mxCell>
        <mxCell id="iP4qbSGtAkl4iv16UOqa-7" value="&lt;font style=&quot;font-size: 16px;&quot;&gt;Мобильное&amp;nbsp;&lt;/font&gt;&lt;div&gt;&lt;font style=&quot;font-size: 16px;&quot;&gt;приложение&lt;/font&gt;&lt;br&gt;&lt;/div&gt;" style="html=1;dropTarget=0;whiteSpace=wrap;" parent="1" vertex="1">
          <mxGeometry x="-170" y="447" width="150" height="60" as="geometry" />
        </mxCell>
        <mxCell id="iP4qbSGtAkl4iv16UOqa-8" value="" style="shape=module;jettyWidth=8;jettyHeight=4;" parent="iP4qbSGtAkl4iv16UOqa-7" vertex="1">
          <mxGeometry x="1" width="20" height="20" relative="1" as="geometry">
            <mxPoint x="-27" y="7" as="offset" />
          </mxGeometry>
        </mxCell>
        <mxCell id="iP4qbSGtAkl4iv16UOqa-9" value="&lt;font style=&quot;font-size: 16px;&quot;&gt;Веб-приложение&lt;/font&gt;" style="html=1;dropTarget=0;whiteSpace=wrap;" parent="1" vertex="1">
          <mxGeometry x="-170" y="828" width="150" height="60" as="geometry" />
        </mxCell>
        <mxCell id="iP4qbSGtAkl4iv16UOqa-10" value="" style="shape=module;jettyWidth=8;jettyHeight=4;" parent="iP4qbSGtAkl4iv16UOqa-9" vertex="1">
          <mxGeometry x="1" width="20" height="20" relative="1" as="geometry">
            <mxPoint x="-27" y="7" as="offset" />
          </mxGeometry>
        </mxCell>
        <mxCell id="7cS3-FmnL7YtCNjnJzs7-40" style="edgeStyle=orthogonalEdgeStyle;rounded=0;orthogonalLoop=1;jettySize=auto;html=1;exitX=0;exitY=0.5;exitDx=0;exitDy=0;entryX=0;entryY=0.25;entryDx=0;entryDy=0;endArrow=none;startFill=0;" parent="1" source="iP4qbSGtAkl4iv16UOqa-11" target="iP4qbSGtAkl4iv16UOqa-22" edge="1">
          <mxGeometry relative="1" as="geometry">
            <Array as="points">
              <mxPoint x="100" y="456" />
              <mxPoint x="100" y="590" />
            </Array>
          </mxGeometry>
        </mxCell>
        <mxCell id="7cS3-FmnL7YtCNjnJzs7-44" value="Direct" style="edgeLabel;html=1;align=center;verticalAlign=middle;resizable=0;points=[];" parent="7cS3-FmnL7YtCNjnJzs7-40" vertex="1" connectable="0">
          <mxGeometry x="0.4164" relative="1" as="geometry">
            <mxPoint as="offset" />
          </mxGeometry>
        </mxCell>
        <mxCell id="7cS3-FmnL7YtCNjnJzs7-41" style="edgeStyle=orthogonalEdgeStyle;rounded=0;orthogonalLoop=1;jettySize=auto;html=1;exitX=0;exitY=0.25;exitDx=0;exitDy=0;entryX=0;entryY=0.5;entryDx=0;entryDy=0;endArrow=none;startFill=0;" parent="1" source="iP4qbSGtAkl4iv16UOqa-11" target="iP4qbSGtAkl4iv16UOqa-36" edge="1">
          <mxGeometry relative="1" as="geometry">
            <Array as="points">
              <mxPoint x="80" y="443" />
              <mxPoint x="80" y="664" />
            </Array>
          </mxGeometry>
        </mxCell>
        <mxCell id="7cS3-FmnL7YtCNjnJzs7-45" value="Direct" style="edgeLabel;html=1;align=center;verticalAlign=middle;resizable=0;points=[];" parent="7cS3-FmnL7YtCNjnJzs7-41" vertex="1" connectable="0">
          <mxGeometry x="0.5211" y="1" relative="1" as="geometry">
            <mxPoint y="14" as="offset" />
          </mxGeometry>
        </mxCell>
        <mxCell id="7cS3-FmnL7YtCNjnJzs7-42" style="edgeStyle=orthogonalEdgeStyle;rounded=0;orthogonalLoop=1;jettySize=auto;html=1;exitX=0.5;exitY=1;exitDx=0;exitDy=0;entryX=0.5;entryY=0;entryDx=0;entryDy=0;endArrow=none;startFill=0;" parent="1" source="iP4qbSGtAkl4iv16UOqa-11" target="iP4qbSGtAkl4iv16UOqa-30" edge="1">
          <mxGeometry relative="1" as="geometry" />
        </mxCell>
        <mxCell id="7cS3-FmnL7YtCNjnJzs7-43" value="Direct" style="edgeLabel;html=1;align=center;verticalAlign=middle;resizable=0;points=[];" parent="7cS3-FmnL7YtCNjnJzs7-42" vertex="1" connectable="0">
          <mxGeometry x="-0.1018" y="2" relative="1" as="geometry">
            <mxPoint as="offset" />
          </mxGeometry>
        </mxCell>
        <mxCell id="iP4qbSGtAkl4iv16UOqa-11" value="&lt;div&gt;&lt;font style=&quot;font-size: 16px;&quot;&gt;Auth&lt;br&gt;Service&lt;/font&gt;&lt;/div&gt;" style="html=1;dropTarget=0;whiteSpace=wrap;" parent="1" vertex="1">
          <mxGeometry x="120" y="434.75" width="144" height="50" as="geometry" />
        </mxCell>
        <mxCell id="iP4qbSGtAkl4iv16UOqa-12" value="" style="shape=module;jettyWidth=9;jettyHeight=3;labelBorderColor=default;" parent="iP4qbSGtAkl4iv16UOqa-11" vertex="1">
          <mxGeometry x="1" width="21" height="20" relative="1" as="geometry">
            <mxPoint x="-28" y="7" as="offset" />
          </mxGeometry>
        </mxCell>
        <mxCell id="iP4qbSGtAkl4iv16UOqa-22" value="&lt;div&gt;&lt;font style=&quot;font-size: 16px;&quot;&gt;Cover&lt;br&gt;Service&lt;/font&gt;&lt;/div&gt;" style="html=1;dropTarget=0;whiteSpace=wrap;" parent="1" vertex="1">
          <mxGeometry x="120" y="577.75" width="142" height="50" as="geometry" />
        </mxCell>
        <mxCell id="iP4qbSGtAkl4iv16UOqa-23" value="" style="shape=module;jettyWidth=9;jettyHeight=3;" parent="iP4qbSGtAkl4iv16UOqa-22" vertex="1">
          <mxGeometry x="1" width="21" height="20" relative="1" as="geometry">
            <mxPoint x="-28" y="7" as="offset" />
          </mxGeometry>
        </mxCell>
        <mxCell id="iP4qbSGtAkl4iv16UOqa-30" value="&lt;div&gt;&lt;font style=&quot;font-size: 16px;&quot;&gt;Subscription&lt;br&gt;Service&lt;/font&gt;&lt;/div&gt;" style="html=1;dropTarget=0;whiteSpace=wrap;" parent="1" vertex="1">
          <mxGeometry x="120" y="507.75" width="142" height="50" as="geometry" />
        </mxCell>
        <mxCell id="iP4qbSGtAkl4iv16UOqa-31" value="" style="shape=module;jettyWidth=9;jettyHeight=3;" parent="iP4qbSGtAkl4iv16UOqa-30" vertex="1">
          <mxGeometry x="1" width="21" height="20" relative="1" as="geometry">
            <mxPoint x="-28" y="7" as="offset" />
          </mxGeometry>
        </mxCell>
        <mxCell id="iP4qbSGtAkl4iv16UOqa-36" value="&lt;div&gt;&lt;font style=&quot;font-size: 16px;&quot;&gt;Generation&lt;br&gt;Service&lt;/font&gt;&lt;/div&gt;" style="html=1;dropTarget=0;whiteSpace=wrap;align=center;" parent="1" vertex="1">
          <mxGeometry x="121" y="637.75" width="142" height="51.5" as="geometry" />
        </mxCell>
        <mxCell id="iP4qbSGtAkl4iv16UOqa-37" value="" style="shape=module;jettyWidth=9;jettyHeight=3;" parent="iP4qbSGtAkl4iv16UOqa-36" vertex="1">
          <mxGeometry x="1" width="21" height="20" relative="1" as="geometry">
            <mxPoint x="-28" y="7" as="offset" />
          </mxGeometry>
        </mxCell>
        <mxCell id="7cS3-FmnL7YtCNjnJzs7-7" style="edgeStyle=orthogonalEdgeStyle;rounded=0;orthogonalLoop=1;jettySize=auto;html=1;endArrow=none;startFill=0;entryX=0;entryY=0.75;entryDx=0;entryDy=0;jumpStyle=gap;jumpSize=8;" parent="1" target="iP4qbSGtAkl4iv16UOqa-22" edge="1">
          <mxGeometry relative="1" as="geometry">
            <mxPoint x="-10" y="615" as="sourcePoint" />
            <mxPoint x="60" y="600" as="targetPoint" />
          </mxGeometry>
        </mxCell>
        <mxCell id="7cS3-FmnL7YtCNjnJzs7-8" value="S3" style="edgeLabel;html=1;align=center;verticalAlign=middle;resizable=0;points=[];" parent="7cS3-FmnL7YtCNjnJzs7-7" vertex="1" connectable="0">
          <mxGeometry x="-0.4338" relative="1" as="geometry">
            <mxPoint as="offset" />
          </mxGeometry>
        </mxCell>
        <mxCell id="iP4qbSGtAkl4iv16UOqa-44" value="&lt;font style=&quot;font-size: 16px;&quot;&gt;Объектное хранилище данных&lt;/font&gt;" style="verticalAlign=top;align=left;spacingTop=8;spacingLeft=2;spacingRight=12;shape=cube;size=10;direction=south;fontStyle=4;html=1;whiteSpace=wrap;" parent="1" vertex="1">
          <mxGeometry x="-178" y="570" width="166" height="140" as="geometry" />
        </mxCell>
        <mxCell id="iP4qbSGtAkl4iv16UOqa-45" value="&lt;div&gt;&lt;font style=&quot;font-size: 16px;&quot;&gt;MinIO&lt;/font&gt;&lt;/div&gt;" style="html=1;dropTarget=0;whiteSpace=wrap;" parent="1" vertex="1">
          <mxGeometry x="-154.5" y="630" width="119" height="50" as="geometry" />
        </mxCell>
        <mxCell id="iP4qbSGtAkl4iv16UOqa-46" value="" style="shape=module;jettyWidth=9;jettyHeight=3;" parent="iP4qbSGtAkl4iv16UOqa-45" vertex="1">
          <mxGeometry x="1" width="21" height="20" relative="1" as="geometry">
            <mxPoint x="-28" y="7" as="offset" />
          </mxGeometry>
        </mxCell>
        <mxCell id="7cS3-FmnL7YtCNjnJzs7-22" style="edgeStyle=orthogonalEdgeStyle;rounded=0;orthogonalLoop=1;jettySize=auto;html=1;entryX=0.161;entryY=1.006;entryDx=0;entryDy=0;entryPerimeter=0;endArrow=none;startFill=0;exitX=0.003;exitY=0.499;exitDx=0;exitDy=0;exitPerimeter=0;" parent="1" source="iP4qbSGtAkl4iv16UOqa-47" target="iP4qbSGtAkl4iv16UOqa-36" edge="1">
          <mxGeometry relative="1" as="geometry">
            <mxPoint x="144" y="750" as="sourcePoint" />
          </mxGeometry>
        </mxCell>
        <mxCell id="7cS3-FmnL7YtCNjnJzs7-27" value="REST" style="edgeLabel;html=1;align=center;verticalAlign=middle;resizable=0;points=[];" parent="7cS3-FmnL7YtCNjnJzs7-22" vertex="1" connectable="0">
          <mxGeometry x="-0.0554" y="1" relative="1" as="geometry">
            <mxPoint y="5" as="offset" />
          </mxGeometry>
        </mxCell>
        <mxCell id="iP4qbSGtAkl4iv16UOqa-47" value="&lt;font style=&quot;font-size: 16px;&quot;&gt;Нейросеть&lt;/font&gt;" style="verticalAlign=top;align=left;spacingTop=8;spacingLeft=2;spacingRight=12;shape=cube;size=10;direction=south;fontStyle=4;html=1;whiteSpace=wrap;" parent="1" vertex="1">
          <mxGeometry x="61" y="758" width="166" height="140" as="geometry" />
        </mxCell>
        <mxCell id="iP4qbSGtAkl4iv16UOqa-49" value="&lt;div&gt;&lt;font style=&quot;font-size: 16px;&quot;&gt;Tone&lt;/font&gt;&lt;/div&gt;&lt;div&gt;&lt;font style=&quot;font-size: 16px;&quot;&gt;Service&lt;/font&gt;&lt;/div&gt;" style="html=1;dropTarget=0;whiteSpace=wrap;" parent="1" vertex="1">
          <mxGeometry x="80" y="818" width="119" height="50" as="geometry" />
        </mxCell>
        <mxCell id="iP4qbSGtAkl4iv16UOqa-50" value="" style="shape=module;jettyWidth=9;jettyHeight=3;" parent="iP4qbSGtAkl4iv16UOqa-49" vertex="1">
          <mxGeometry x="1" width="21" height="20" relative="1" as="geometry">
            <mxPoint x="-28" y="7" as="offset" />
          </mxGeometry>
        </mxCell>
        <mxCell id="7cS3-FmnL7YtCNjnJzs7-23" style="edgeStyle=orthogonalEdgeStyle;rounded=0;orthogonalLoop=1;jettySize=auto;html=1;exitX=0.002;exitY=0.784;exitDx=0;exitDy=0;exitPerimeter=0;entryX=0.5;entryY=1;entryDx=0;entryDy=0;endArrow=none;startFill=0;" parent="1" source="iP4qbSGtAkl4iv16UOqa-51" target="iP4qbSGtAkl4iv16UOqa-36" edge="1">
          <mxGeometry relative="1" as="geometry">
            <Array as="points">
              <mxPoint x="291" y="740" />
              <mxPoint x="170" y="740" />
            </Array>
          </mxGeometry>
        </mxCell>
        <mxCell id="7cS3-FmnL7YtCNjnJzs7-26" value="REST" style="edgeLabel;html=1;align=center;verticalAlign=middle;resizable=0;points=[];" parent="7cS3-FmnL7YtCNjnJzs7-23" vertex="1" connectable="0">
          <mxGeometry x="-0.0753" y="2" relative="1" as="geometry">
            <mxPoint as="offset" />
          </mxGeometry>
        </mxCell>
        <mxCell id="iP4qbSGtAkl4iv16UOqa-51" value="&lt;font style=&quot;font-size: 16px;&quot;&gt;Нейросеть&lt;/font&gt;" style="verticalAlign=top;align=left;spacingTop=8;spacingLeft=2;spacingRight=12;shape=cube;size=10;direction=south;fontStyle=4;html=1;whiteSpace=wrap;" parent="1" vertex="1">
          <mxGeometry x="251" y="758" width="187" height="140" as="geometry" />
        </mxCell>
        <mxCell id="iP4qbSGtAkl4iv16UOqa-52" value="&lt;div&gt;&lt;font style=&quot;font-size: 15px;&quot;&gt;Audio-to-Text&lt;/font&gt;&lt;/div&gt;&lt;div&gt;&lt;font style=&quot;font-size: 15px;&quot;&gt;Service&lt;/font&gt;&lt;/div&gt;" style="html=1;dropTarget=0;whiteSpace=wrap;" parent="1" vertex="1">
          <mxGeometry x="271" y="818" width="140" height="50" as="geometry" />
        </mxCell>
        <mxCell id="iP4qbSGtAkl4iv16UOqa-53" value="" style="shape=module;jettyWidth=9;jettyHeight=3;" parent="iP4qbSGtAkl4iv16UOqa-52" vertex="1">
          <mxGeometry x="1" width="21" height="20" relative="1" as="geometry">
            <mxPoint x="-28" y="7" as="offset" />
          </mxGeometry>
        </mxCell>
        <mxCell id="7cS3-FmnL7YtCNjnJzs7-24" style="edgeStyle=orthogonalEdgeStyle;rounded=0;orthogonalLoop=1;jettySize=auto;html=1;exitX=0;exitY=0;exitDx=0;exitDy=78;exitPerimeter=0;entryX=0.75;entryY=1;entryDx=0;entryDy=0;endArrow=none;startFill=0;" parent="1" source="iP4qbSGtAkl4iv16UOqa-54" target="iP4qbSGtAkl4iv16UOqa-36" edge="1">
          <mxGeometry relative="1" as="geometry">
            <Array as="points">
              <mxPoint x="510" y="758" />
              <mxPoint x="510" y="726" />
              <mxPoint x="206" y="726" />
            </Array>
          </mxGeometry>
        </mxCell>
        <mxCell id="7cS3-FmnL7YtCNjnJzs7-25" value="REST" style="edgeLabel;html=1;align=center;verticalAlign=middle;resizable=0;points=[];" parent="7cS3-FmnL7YtCNjnJzs7-24" vertex="1" connectable="0">
          <mxGeometry x="-0.7096" y="1" relative="1" as="geometry">
            <mxPoint y="2" as="offset" />
          </mxGeometry>
        </mxCell>
        <mxCell id="iP4qbSGtAkl4iv16UOqa-54" value="&lt;font style=&quot;font-size: 16px;&quot;&gt;Нейросеть&lt;/font&gt;" style="verticalAlign=top;align=left;spacingTop=8;spacingLeft=2;spacingRight=12;shape=cube;size=10;direction=south;fontStyle=4;html=1;whiteSpace=wrap;" parent="1" vertex="1">
          <mxGeometry x="464" y="758" width="166" height="140" as="geometry" />
        </mxCell>
        <mxCell id="iP4qbSGtAkl4iv16UOqa-55" value="&lt;div&gt;&lt;font style=&quot;font-size: 16px;&quot;&gt;LLM&lt;/font&gt;&lt;/div&gt;&lt;div&gt;&lt;font style=&quot;font-size: 16px;&quot;&gt;Service&lt;/font&gt;&lt;/div&gt;" style="html=1;dropTarget=0;whiteSpace=wrap;" parent="1" vertex="1">
          <mxGeometry x="484" y="818" width="119" height="50" as="geometry" />
        </mxCell>
        <mxCell id="iP4qbSGtAkl4iv16UOqa-56" value="" style="shape=module;jettyWidth=9;jettyHeight=3;" parent="iP4qbSGtAkl4iv16UOqa-55" vertex="1">
          <mxGeometry x="1" width="21" height="20" relative="1" as="geometry">
            <mxPoint x="-28" y="7" as="offset" />
          </mxGeometry>
        </mxCell>
        <mxCell id="iP4qbSGtAkl4iv16UOqa-71" style="edgeStyle=orthogonalEdgeStyle;rounded=0;orthogonalLoop=1;jettySize=auto;html=1;exitX=0;exitY=0;exitDx=55;exitDy=0;exitPerimeter=0;entryX=0.18;entryY=1.001;entryDx=0;entryDy=0;entryPerimeter=0;endArrow=none;startFill=0;" parent="1" source="iP4qbSGtAkl4iv16UOqa-1" target="iP4qbSGtAkl4iv16UOqa-5" edge="1">
          <mxGeometry relative="1" as="geometry" />
        </mxCell>
        <mxCell id="iP4qbSGtAkl4iv16UOqa-73" value="REST" style="edgeLabel;html=1;align=center;verticalAlign=middle;resizable=0;points=[];" parent="iP4qbSGtAkl4iv16UOqa-71" vertex="1" connectable="0">
          <mxGeometry x="-0.1249" y="2" relative="1" as="geometry">
            <mxPoint x="4" y="2" as="offset" />
          </mxGeometry>
        </mxCell>
        <mxCell id="iP4qbSGtAkl4iv16UOqa-75" style="edgeStyle=orthogonalEdgeStyle;rounded=0;orthogonalLoop=1;jettySize=auto;html=1;exitX=0;exitY=0;exitDx=140;exitDy=88;exitPerimeter=0;entryX=0.022;entryY=0.521;entryDx=0;entryDy=0;entryPerimeter=0;endArrow=none;startFill=0;" parent="1" source="iP4qbSGtAkl4iv16UOqa-44" target="iP4qbSGtAkl4iv16UOqa-3" edge="1">
          <mxGeometry relative="1" as="geometry" />
        </mxCell>
        <mxCell id="iP4qbSGtAkl4iv16UOqa-81" value="S3" style="edgeLabel;html=1;align=center;verticalAlign=middle;resizable=0;points=[];" parent="iP4qbSGtAkl4iv16UOqa-75" vertex="1" connectable="0">
          <mxGeometry x="-0.0792" y="-1" relative="1" as="geometry">
            <mxPoint as="offset" />
          </mxGeometry>
        </mxCell>
        <mxCell id="iP4qbSGtAkl4iv16UOqa-76" style="edgeStyle=orthogonalEdgeStyle;rounded=0;orthogonalLoop=1;jettySize=auto;html=1;exitX=0;exitY=0;exitDx=0;exitDy=78;exitPerimeter=0;entryX=1.001;entryY=0.477;entryDx=0;entryDy=0;entryPerimeter=0;endArrow=none;startFill=0;" parent="1" source="iP4qbSGtAkl4iv16UOqa-44" target="iP4qbSGtAkl4iv16UOqa-1" edge="1">
          <mxGeometry relative="1" as="geometry" />
        </mxCell>
        <mxCell id="iP4qbSGtAkl4iv16UOqa-80" value="S3" style="edgeLabel;html=1;align=center;verticalAlign=middle;resizable=0;points=[];" parent="iP4qbSGtAkl4iv16UOqa-76" vertex="1" connectable="0">
          <mxGeometry x="-0.1466" y="1" relative="1" as="geometry">
            <mxPoint as="offset" />
          </mxGeometry>
        </mxCell>
        <mxCell id="7cS3-FmnL7YtCNjnJzs7-12" value="&lt;div&gt;&lt;font style=&quot;font-size: 16px;&quot;&gt;&lt;br&gt;&lt;/font&gt;&lt;/div&gt;&lt;div&gt;&lt;font style=&quot;font-size: 16px;&quot;&gt;PostgreSQL&lt;/font&gt;&lt;/div&gt;" style="strokeWidth=2;html=1;shape=mxgraph.flowchart.database;whiteSpace=wrap;" parent="1" vertex="1">
          <mxGeometry x="464" y="530" width="130" height="60" as="geometry" />
        </mxCell>
        <mxCell id="7cS3-FmnL7YtCNjnJzs7-28" style="edgeStyle=orthogonalEdgeStyle;rounded=0;orthogonalLoop=1;jettySize=auto;html=1;exitX=0;exitY=0;exitDx=0;exitDy=0;exitPerimeter=0;entryX=0.96;entryY=1;entryDx=0;entryDy=0;entryPerimeter=0;endArrow=none;startFill=0;" parent="1" source="iP4qbSGtAkl4iv16UOqa-3" target="iP4qbSGtAkl4iv16UOqa-5" edge="1">
          <mxGeometry relative="1" as="geometry">
            <Array as="points">
              <mxPoint y="790" />
              <mxPoint x="30" y="790" />
              <mxPoint x="30" y="698" />
            </Array>
          </mxGeometry>
        </mxCell>
        <mxCell id="7cS3-FmnL7YtCNjnJzs7-29" value="REST" style="edgeLabel;html=1;align=center;verticalAlign=middle;resizable=0;points=[];" parent="7cS3-FmnL7YtCNjnJzs7-28" vertex="1" connectable="0">
          <mxGeometry x="0.0817" y="-1" relative="1" as="geometry">
            <mxPoint as="offset" />
          </mxGeometry>
        </mxCell>
        <mxCell id="7cS3-FmnL7YtCNjnJzs7-31" style="rounded=0;orthogonalLoop=1;jettySize=auto;html=1;exitX=1;exitY=0.75;exitDx=0;exitDy=0;entryX=0.006;entryY=0.363;entryDx=0;entryDy=0;entryPerimeter=0;endArrow=none;startFill=0;" parent="1" source="iP4qbSGtAkl4iv16UOqa-30" target="7cS3-FmnL7YtCNjnJzs7-12" edge="1">
          <mxGeometry relative="1" as="geometry" />
        </mxCell>
        <mxCell id="7cS3-FmnL7YtCNjnJzs7-36" value="JDBC/JPA" style="edgeLabel;html=1;align=center;verticalAlign=middle;resizable=0;points=[];" parent="7cS3-FmnL7YtCNjnJzs7-31" vertex="1" connectable="0">
          <mxGeometry x="-0.0631" relative="1" as="geometry">
            <mxPoint x="25" as="offset" />
          </mxGeometry>
        </mxCell>
        <mxCell id="7cS3-FmnL7YtCNjnJzs7-32" style="rounded=0;orthogonalLoop=1;jettySize=auto;html=1;exitX=1;exitY=0.5;exitDx=0;exitDy=0;entryX=0.01;entryY=0.621;entryDx=0;entryDy=0;entryPerimeter=0;endArrow=none;startFill=0;" parent="1" source="iP4qbSGtAkl4iv16UOqa-22" target="7cS3-FmnL7YtCNjnJzs7-12" edge="1">
          <mxGeometry relative="1" as="geometry" />
        </mxCell>
        <mxCell id="7cS3-FmnL7YtCNjnJzs7-37" value="JDBC/JPA" style="edgeLabel;html=1;align=center;verticalAlign=middle;resizable=0;points=[];" parent="7cS3-FmnL7YtCNjnJzs7-32" vertex="1" connectable="0">
          <mxGeometry x="-0.1467" y="-2" relative="1" as="geometry">
            <mxPoint x="8" y="-3" as="offset" />
          </mxGeometry>
        </mxCell>
        <mxCell id="7cS3-FmnL7YtCNjnJzs7-33" value="JDBC/JPA" style="rounded=0;orthogonalLoop=1;jettySize=auto;html=1;exitX=1;exitY=0.5;exitDx=0;exitDy=0;entryX=0;entryY=0.85;entryDx=0;entryDy=0;entryPerimeter=0;endArrow=none;startFill=0;" parent="1" source="iP4qbSGtAkl4iv16UOqa-36" target="7cS3-FmnL7YtCNjnJzs7-12" edge="1">
          <mxGeometry relative="1" as="geometry" />
        </mxCell>
        <mxCell id="7cS3-FmnL7YtCNjnJzs7-34" style="rounded=0;orthogonalLoop=1;jettySize=auto;html=1;exitX=1;exitY=0.5;exitDx=0;exitDy=0;entryX=0;entryY=0.15;entryDx=0;entryDy=0;entryPerimeter=0;endArrow=none;startFill=0;" parent="1" source="iP4qbSGtAkl4iv16UOqa-11" target="7cS3-FmnL7YtCNjnJzs7-12" edge="1">
          <mxGeometry relative="1" as="geometry" />
        </mxCell>
        <mxCell id="7cS3-FmnL7YtCNjnJzs7-35" value="JDBC/JPA" style="edgeLabel;html=1;align=center;verticalAlign=middle;resizable=0;points=[];" parent="7cS3-FmnL7YtCNjnJzs7-34" vertex="1" connectable="0">
          <mxGeometry x="-0.1998" y="2" relative="1" as="geometry">
            <mxPoint x="38" y="13" as="offset" />
          </mxGeometry>
        </mxCell>
      </root>
    </mxGraphModel>
  </diagram>
</mxfile>
